/* XPM */
static char * Browser_xpm[] = {
"18 18 4 1",
" 	c None",
".	c #000000",
"+	c #009933",
"@	c #FFFFFF",
"      ......      ",
"    ..++++++.     ",
"   .@+@@@+@@@..   ",
"  .+@@+++++++++.  ",
" .+@+@+@+@+@++@+. ",
" .++@@++@+@@+@+@. ",
".+@@@+@@++@@+@+++.",
".+@@+@@@++@+@@++@.",
".+@@+@@+@@++++@+@.",
".+@+@++@@@+@@@@+@.",
".+++@@+@@@+@@@@+@.",
".++@@@+++++@@@@++.",
" .++@+@@@+++++++. ",
"  .@++@@@+@@@@@.  ",
"  .@+@++++@@@++.  ",
"   .+@@@+++++..   ",
"    ..@@+@@@.     ",
"      ......      "};
