/* XPM */
static char *Brame[] = {
/* columns rows colors chars-per-pixel */
"16 16 82 1 ",
"  c None",
". c #7A3618",
"X c #7B3718",
"o c #B95324",
"O c #BE5525",
"+ c #C15626",
"@ c #C45827",
"# c #C55827",
"$ c #C75927",
"% c #C85927",
"& c #EE6B2F",
"* c #F16C2F",
"= c #F26C30",
"- c #F56E31",
"; c #F66E30",
": c #F66E31",
"> c #F66F31",
", c #F76F31",
"< c #F7763B",
"1 c #F0753C",
"2 c #F1753C",
"3 c #F3763D",
"4 c #F1773F",
"5 c #F2773F",
"6 c #DD7443",
"7 c #DF7444",
"8 c #F67941",
"9 c #F77A41",
"0 c #F77C44",
"q c #F37E49",
"w c #F37F4A",
"e c #F77F48",
"r c #F8834E",
"t c #EE8759",
"y c #EE8859",
"u c #ED976F",
"i c #F69265",
"p c #F69366",
"a c #F89061",
"s c #F89162",
"d c #F9996D",
"f c #F99A6F",
"g c #ED9770",
"h c #ED9D79",
"j c #ED9E79",
"k c #ED9E7A",
"l c #ED9F7B",
"z c #F0A27E",
"x c #F9A27A",
"c c #F9A27B",
"v c #F0A380",
"b c #FAA782",
"n c #F0B79E",
"m c #F0B89F",
"M c #EFBBA4",
"N c #F7C5AE",
"B c #F7C6AF",
"V c #F0CAB9",
"C c #F0CBBA",
"Z c #FCD3C0",
"A c #FCD5C4",
"S c #F5D9CC",
"D c #F7DFD4",
"F c #F7E0D5",
"G c #FAE5DB",
"H c #FAE5DC",
"J c #FBE7DE",
"K c #FBE8DF",
"L c #FDE8DE",
"P c #FDE9DF",
"I c #FEEEE8",
"U c #FEEFE8",
"Y c #FEF3EF",
"T c #FEF5F0",
"R c #FCF8F6",
"E c #FCF9F7",
"W c #FDF9F7",
"Q c #FEFBF9",
"! c #FDFBFA",
"~ c #FEFDFD",
"^ c #FEFEFE",
"/ c white",
/* pixels */
"                ",
"     9<<<<9     ",
"   62,,,,,,87   ",
"   ,adrbbrfa,   ",
"  20Y^!^^^^Te2  ",
"  ,ZEMuGHgMWA,  ",
"  ,D^^IIYG^^F,  ",
"  &2S^NVVN^S2&  ",
"  o,e^QxxQ^r,O  ",
"   ,i^QvzQ^i,   ",
"   =,knPPmj,=   ",
"   o,,jWWj,,+   ",
"    @,,tt,,%    ",
"     X*,,*X     ",
"       @@       ",
"                "
};
