/* XPM */
static char * chrome_xpm[] = {
"18 18 210 2",
"  	c None",
". 	c #CE4545",
"+ 	c #D14444",
"@ 	c #CF4343",
"# 	c #CF4545",
"$ 	c #D14848",
"% 	c #D04949",
"& 	c #7F3223",
"* 	c #DC6767",
"= 	c #CE1212",
"- 	c #CE0101",
"; 	c #CF0000",
"> 	c #CE0000",
", 	c #CC0202",
"' 	c #C90606",
") 	c #C50A0A",
"! 	c #C51111",
"~ 	c #74CB7D",
"{ 	c #906E71",
"] 	c #E20A0B",
"^ 	c #E50202",
"/ 	c #E51515",
"( 	c #E23C3B",
"_ 	c #E24443",
": 	c #E42020",
"< 	c #E30808",
"[ 	c #DE0000",
"} 	c #D60000",
"| 	c #CD0000",
"1 	c #52C659",
"2 	c #B1E4B5",
"3 	c #9FACA1",
"4 	c #F12021",
"5 	c #EB5858",
"6 	c #A15E5C",
"7 	c #7B616D",
"8 	c #7F4F56",
"9 	c #9B5C58",
"0 	c #E66462",
"a 	c #F02525",
"b 	c #EC0000",
"c 	c #E50000",
"d 	c #DD0502",
"e 	c #53BB59",
"f 	c #3BBC43",
"g 	c #69D170",
"h 	c #7DC086",
"i 	c #D09796",
"j 	c #6C3637",
"k 	c #3D79A4",
"l 	c #4C98E2",
"m 	c #4D92E0",
"n 	c #2981C7",
"o 	c #584B5C",
"p 	c #E96463",
"q 	c #F80E0E",
"r 	c #FF0302",
"s 	c #F70000",
"t 	c #DE381B",
"u 	c #42B149",
"v 	c #37B83F",
"w 	c #50C757",
"x 	c #8AE28F",
"y 	c #96978B",
"z 	c #296488",
"A 	c #419EED",
"B 	c #74B1ED",
"C 	c #8EC4F0",
"D 	c #559EED",
"E 	c #2995CE",
"F 	c #5B534C",
"G 	c #62564E",
"H 	c #673C35",
"I 	c #952224",
"J 	c #BF3D22",
"K 	c #32A73A",
"L 	c #30B138",
"M 	c #42C149",
"N 	c #8FE292",
"O 	c #567E61",
"P 	c #24577D",
"Q 	c #3A98EB",
"R 	c #79B4EE",
"S 	c #94C8F1",
"T 	c #519DEF",
"U 	c #4898B2",
"V 	c #52554D",
"W 	c #FFF66E",
"X 	c #E2CB2C",
"Y 	c #AAA33D",
"Z 	c #775B26",
"` 	c #299E30",
" .	c #29A931",
"..	c #38B940",
"+.	c #73D776",
"@.	c #609A77",
"#.	c #39484D",
"$.	c #1282CE",
"%.	c #3B93E6",
"&.	c #4B98E9",
"*.	c #2291E4",
"=.	c #35667E",
"-.	c #5E523F",
";.	c #FFEF5E",
">.	c #FED70C",
",.	c #F8D311",
"'.	c #E1BD1B",
").	c #26992E",
"!.	c #1F9F27",
"~.	c #2FAF37",
"{.	c #3CBE43",
"].	c #A3E2AE",
"^.	c #3F4D42",
"/.	c #2D5762",
"(.	c #0F72AE",
"_.	c #0E78B8",
":.	c #1D5B82",
"<.	c #2D2B32",
"[.	c #C3B87C",
"}.	c #FFE335",
"|.	c #FBD60E",
"1.	c #F2CE13",
"2.	c #E0BE1A",
"3.	c #26942D",
"4.	c #17961F",
"5.	c #24A42C",
"6.	c #2DB036",
"7.	c #56C75B",
"8.	c #94CE9F",
"9.	c #667866",
"0.	c #4C4543",
"a.	c #353134",
"b.	c #544D49",
"c.	c #AFA98D",
"d.	c #FFED63",
"e.	c #FED607",
"f.	c #F8D211",
"g.	c #EDC914",
"h.	c #DAB91D",
"i.	c #2C9433",
"j.	c #0D8A14",
"k.	c #199721",
"l.	c #25A42D",
"m.	c #3DC045",
"n.	c #728A77",
"o.	c #908C8C",
"p.	c #EDEABC",
"q.	c #F0E495",
"r.	c #FFE13A",
"s.	c #FED80E",
"t.	c #FBD50F",
"u.	c #F3CE12",
"v.	c #E5C216",
"w.	c #D6B82F",
"x.	c #379A3F",
"y.	c #16891E",
"z.	c #0A8812",
"A.	c #17961E",
"B.	c #209E2C",
"C.	c #68776C",
"D.	c #AB9C75",
"E.	c #FFED4C",
"F.	c #FEDF2D",
"G.	c #FFDC1B",
"H.	c #FFD910",
"I.	c #FDD710",
"J.	c #F6D112",
"K.	c #ECC812",
"L.	c #DBBA25",
"M.	c #D6BC44",
"N.	c #45A24E",
"O.	c #0F8719",
"P.	c #007B11",
"Q.	c #71776F",
"R.	c #C9BA69",
"S.	c #FFEC48",
"T.	c #FFE033",
"U.	c #FFDD22",
"V.	c #FED913",
"W.	c #FDD70F",
"X.	c #EDC812",
"Y.	c #E1BF24",
"Z.	c #D9BF44",
"`.	c #4EA657",
" +	c #198F30",
".+	c #4D6059",
"++	c #FFF73D",
"@+	c #FEDC24",
"#+	c #FFDA18",
"$+	c #FED70E",
"%+	c #F8D210",
"&+	c #F0CA0F",
"*+	c #E4C52F",
"=+	c #DCC246",
"-+	c #5CAC5F",
";+	c #34984B",
">+	c #6A7854",
",+	c #F6D917",
"'+	c #FFD911",
")+	c #FBD512",
"!+	c #F1CE21",
"~+	c #ECCB2B",
"{+	c #E8CB45",
"]+	c #E0C650",
"^+	c #4AA160",
"/+	c #5B9159",
"(+	c #A0B748",
"_+	c #F0D746",
":+	c #F2D647",
"<+	c #EBD048",
"                                    ",
"            . + @ # $ %             ",
"        & * = - ; > , ' ) !         ",
"      ~ { ] ^ / ( _ : < [ } |       ",
"    1 2 3 4 5 6 7 8 9 0 a b c d     ",
"  e f g h i j k l m n o p q r s t   ",
"  u v w x y z A B C D E F G H I J   ",
"  K L M N O P Q R S T U V W X Y Z   ",
"  `  ...+.@.#.$.%.&.*.=.-.;.>.,.'.  ",
"  ).!.~.{.].^./.(._.:.<.[.}.|.1.2.  ",
"  3.4.5.6.7.8.9.0.a.b.c.d.e.f.g.h.  ",
"  i.j.k.l.~.m.n.o.p.q.r.s.t.u.v.w.  ",
"  x.y.z.A.B.C.D.E.F.G.H.I.J.K.L.M.  ",
"    N.O.P.Q.R.S.T.U.V.W.,.X.Y.Z.    ",
"      `. +.+++@+#+H.$+%+&+*+=+      ",
"        -+;+>+,+'+)+!+~+{+]+        ",
"            ^+/+(+_+:+<+            ",
"                                    "};
