/* XPM */
static char * C:\Users\Heptite\lib\vim\HTML\Edge_xpm[] = {
"16 16 160 2",
"  	c None",
". 	c #37C3DF",
"+ 	c #2FC3DA",
"@ 	c #29C2D3",
"# 	c #2AC2CB",
"$ 	c #32C4C3",
"% 	c #34C5BB",
"& 	c #3AC1EC",
"* 	c #32C1E8",
"= 	c #31C2E4",
"- 	c #2FC2E0",
"; 	c #2EC2DC",
"> 	c #2CC3D6",
", 	c #2CC3CF",
"' 	c #2DC4C2",
") 	c #35C9AD",
"! 	c #3FCF9B",
"~ 	c #30C0EF",
"{ 	c #34C1EE",
"] 	c #34C1ED",
"^ 	c #33C1E9",
"/ 	c #2FC2DF",
"( 	c #2DC2DB",
"_ 	c #2CC3D4",
": 	c #2EC5C6",
"< 	c #39CCAD",
"[ 	c #43D397",
"} 	c #4AD888",
"| 	c #3AC1EE",
"1 	c #34C1EF",
"2 	c #33BEEB",
"3 	c #30B6E3",
"4 	c #2EB6DF",
"5 	c #31C0E2",
"6 	c #30C6C5",
"7 	c #3CCEA9",
"8 	c #47D693",
"9 	c #51DC83",
"0 	c #59E179",
"a 	c #30BAE7",
"b 	c #2295CB",
"c 	c #0F78B9",
"d 	c #117EBF",
"e 	c #1280BF",
"f 	c #147EB8",
"g 	c #2199C3",
"h 	c #2BBCD3",
"i 	c #2BC3D1",
"j 	c #31C6BF",
"k 	c #3DCFA6",
"l 	c #48D78F",
"m 	c #54DE7F",
"n 	c #5EE674",
"o 	c #31B7DA",
"p 	c #1580C0",
"q 	c #0C7FC8",
"r 	c #0F88D3",
"s 	c #118DD7",
"t 	c #138FD9",
"u 	c #148ED3",
"v 	c #1588C7",
"w 	c #1A8ABC",
"x 	c #2BBDC4",
"y 	c #31C7B6",
"z 	c #3DCE9F",
"A 	c #48D68C",
"B 	c #53DD7D",
"C 	c #5CE474",
"D 	c #61E673",
"E 	c #1E8BC5",
"F 	c #097FCF",
"G 	c #0B87D9",
"H 	c #0D8ADB",
"I 	c #0F8DDB",
"J 	c #1190DD",
"K 	c #1688D0",
"L 	c #29A5B5",
"M 	c #30C5AA",
"N 	c #3ACC97",
"O 	c #44D488",
"P 	c #4EDA7C",
"Q 	c #56DF74",
"R 	c #56DF6F",
"S 	c #047ACE",
"T 	c #0882D8",
"U 	c #0A85D9",
"V 	c #0B88DA",
"W 	c #0D6CB1",
"X 	c #30C598",
"Y 	c #37C98C",
"Z 	c #40D080",
"` 	c #48D676",
" .	c #4ED96F",
"..	c #51DA6C",
"+.	c #037DD6",
"@.	c #067FD7",
"#.	c #0A84D9",
"$.	c #0B7DCB",
"%.	c #0B4C8D",
"&.	c #32C584",
"*.	c #34C67C",
"=.	c #3ACC73",
"-.	c #42D06B",
";.	c #47D465",
">.	c #47D562",
",.	c #117ED6",
"'.	c #057ED6",
").	c #0882D7",
"!.	c #0A67B0",
"~.	c #0D5298",
"{.	c #35C672",
"].	c #34C66D",
"^.	c #34C666",
"/.	c #36C85F",
"(.	c #3CCB5A",
"_.	c #43CE5B",
":.	c #117CD5",
"<.	c #037CD5",
"[.	c #057ED7",
"}.	c #0B59A0",
"|.	c #0D549C",
"1.	c #13569E",
"2.	c #3AC858",
"3.	c #39C854",
"4.	c #0279D5",
"5.	c #047ED6",
"6.	c #0A5EA6",
"7.	c #0D559D",
"8.	c #0D559E",
"9.	c #1A579C",
"0.	c #167CD4",
"a.	c #027AD5",
"b.	c #0769B8",
"c.	c #0D539A",
"d.	c #0E549B",
"e.	c #0D5198",
"f.	c #165297",
"g.	c #164C8E",
"h.	c #1E4B86",
"i.	c #0076D3",
"j.	c #0379D1",
"k.	c #0C549A",
"l.	c #0E5299",
"m.	c #0E5197",
"n.	c #0F4F96",
"o.	c #104E93",
"p.	c #114D90",
"q.	c #0B488B",
"r.	c #177AD4",
"s.	c #0472C7",
"t.	c #0C5399",
"u.	c #0E5399",
"v.	c #104D92",
"w.	c #1F5190",
"x.	c #117CD6",
"y.	c #0D78D0",
"z.	c #0866B6",
"A.	c #0B59A3",
"B.	c #145499",
"C.	c #225595",
"          . + @ # $ %           ",
"      & * = - ; > , ' ) !       ",
"    ~ { ] ^ = / ( _ : < [ }     ",
"  | 1 2 3 4 5 - ( _ 6 7 8 9 0   ",
"  a b c d e f g h i j k l m n   ",
"o p q r s t u v w x y z A B C D ",
"E F G H I J K     L M N O P Q R ",
"S T U V H W         X Y Z `  ...",
"+.@.T #.$.%.        &.*.=.-.;.>.",
",.'.@.).!.~.      {.].^./.(._.  ",
":.<.[.@.}.|.1.        2.3.      ",
"  4.<.5.6.7.8.9.                ",
"  0.a.<.b.c.8.d.e.f.      g.h.  ",
"    i.a.j.k.|.d.l.m.n.o.p.q.    ",
"      r.4.s.t.u.l.m.n.v.w.      ",
"          x.y.z.A.B.C.          "};
