/* XPM */
static char * Firefox_xpm[] = {
"18 18 177 2",
"  	c None",
". 	c #00358E",
"+ 	c #245BA6",
"@ 	c #3450A1",
"# 	c #2B4A9B",
"$ 	c #1B54A2",
"% 	c #00138C",
"& 	c #FFFF80",
"* 	c #FFCC00",
"= 	c #002793",
"- 	c #196DB3",
"; 	c #52A1D3",
"> 	c #79BFE3",
", 	c #A5DFF5",
"' 	c #99D7F0",
") 	c #75B4D2",
"! 	c #5C7986",
"~ 	c #595247",
"{ 	c #4E212C",
"] 	c #F78020",
"^ 	c #CB7735",
"/ 	c #0D5197",
"( 	c #499FCD",
"_ 	c #A3B4A2",
": 	c #88AEB1",
"< 	c #8DCEED",
"[ 	c #83C7E6",
"} 	c #69B1D4",
"| 	c #848E7C",
"1 	c #DFB327",
"2 	c #F4C225",
"3 	c #E79018",
"4 	c #C73D04",
"5 	c #EB7E2B",
"6 	c #C98A4D",
"7 	c #D48B43",
"8 	c #C57726",
"9 	c #5F9ABA",
"0 	c #69B9E6",
"a 	c #61AED8",
"b 	c #74BDE5",
"c 	c #578EB8",
"d 	c #D2BE25",
"e 	c #F8CC12",
"f 	c #D6A033",
"g 	c #C75910",
"h 	c #E57612",
"i 	c #C4580D",
"j 	c #AB664D",
"k 	c #848E92",
"l 	c #57A6DA",
"m 	c #57A1D4",
"n 	c #4B91C6",
"o 	c #3B7ABF",
"p 	c #596D76",
"q 	c #F6B309",
"r 	c #E7C03B",
"s 	c #CA6A23",
"t 	c #DB731C",
"u 	c #E27614",
"v 	c #DD721B",
"w 	c #DF7417",
"x 	c #E37B18",
"y 	c #BB7646",
"z 	c #586D7D",
"A 	c #3B82BA",
"B 	c #1D5F95",
"C 	c #104A7F",
"D 	c #3B76B8",
"E 	c #5C768E",
"F 	c #F5BC31",
"G 	c #EECF13",
"H 	c #794300",
"I 	c #BA5816",
"J 	c #DD7017",
"K 	c #E07715",
"L 	c #D86F1B",
"M 	c #D48433",
"N 	c #697272",
"O 	c #427DB8",
"P 	c #11447A",
"Q 	c #032E60",
"R 	c #1B4483",
"S 	c #525F69",
"T 	c #FEDE37",
"U 	c #F5C527",
"V 	c #915600",
"W 	c #9B3910",
"X 	c #D56413",
"Y 	c #CC5C11",
"Z 	c #A62202",
"` 	c #533C47",
" .	c #386EB6",
"..	c #011C4C",
"+.	c #051848",
"@.	c #A17B3D",
"#.	c #FFD30A",
"$.	c #6C4D16",
"%.	c #7B1809",
"&.	c #CB540E",
"*.	c #E47E19",
"=.	c #CC540C",
"-.	c #C63700",
";.	c #83716F",
">.	c #9D7860",
",.	c #C19361",
"'.	c #454F67",
").	c #020335",
"!.	c #0E184B",
"~.	c #DDB64D",
"{.	c #FFC402",
"].	c #E9C63E",
"^.	c #392F1A",
"/.	c #2F0000",
"(.	c #B73B08",
"_.	c #E67F19",
":.	c #E15E06",
"<.	c #DA600A",
"[.	c #B94809",
"}.	c #AF4A0D",
"|.	c #5B2E18",
"1.	c #100C27",
"2.	c #6A4F3C",
"3.	c #EFC919",
"4.	c #FFD53D",
"5.	c #CEBC53",
"6.	c #000000",
"7.	c #891203",
"8.	c #DC5F10",
"9.	c #E27E17",
"0.	c #DF740F",
"a.	c #A65C21",
"b.	c #35283B",
"c.	c #0F1859",
"d.	c #181038",
"e.	c #834928",
"f.	c #E5860B",
"g.	c #FFFA3B",
"h.	c #8F7914",
"i.	c #A31D03",
"j.	c #DA5716",
"k.	c #E57C11",
"l.	c #D27628",
"m.	c #C67231",
"n.	c #E67718",
"o.	c #E68803",
"p.	c #FFEC22",
"q.	c #C9AB07",
"r.	c #180C00",
"s.	c #500500",
"t.	c #A71301",
"u.	c #C82611",
"v.	c #C52D0C",
"w.	c #CD4913",
"x.	c #D55B16",
"y.	c #DC6816",
"z.	c #DC6F12",
"A.	c #DF8105",
"B.	c #F8C700",
"C.	c #D1A602",
"D.	c #4A2E00",
"E.	c #3E0000",
"F.	c #840000",
"G.	c #AF0A03",
"H.	c #BF1009",
"I.	c #C31B0B",
"J.	c #C93009",
"K.	c #D15105",
"L.	c #CF7405",
"M.	c #A46607",
"N.	c #361705",
"O.	c #410400",
"P.	c #6D0D04",
"Q.	c #7E1205",
"R.	c #7C1B05",
"S.	c #6C2606",
"T.	c #3F1C06",
"                                    ",
"            . + @ # $ %             ",
"    & * = - ; > , ' ) ! ~ {         ",
"    ] ^ / ( _ : < [ } | 1 2 3       ",
"    4 5 6 7 8 9 0 a b c ~ d e f     ",
"    g h h h i j k l m n o p q r     ",
"  s t u v w x y z A B C D E F G H   ",
"  I J K K L M N O O P Q R S T U V   ",
"  W X x Y Z ` +  .O R ..+.@.#.2 $.  ",
"  %.&.*.=.-.s ;.>.,.'.).!.~.{.].^.  ",
"  /.(._.J :.<.[.}.|.1.).2.3.4.5.6.  ",
"    7.8.9.0.h a.b.c.d.e.f.2 g.h.    ",
"    /.i.j.v 0.k.l.m.l.n.o.p.q.r.    ",
"      s.t.u.v.w.x.y.z.A.B.C.D.      ",
"      6.E.F.G.H.I.J.K.L.M.N.6.      ",
"          6.O.P.Q.R.S.T.6.          ",
"              6.6.6.6.              ",
"                                    "};
