/* XPM */
static char * Hline_xpm[] = {
"18 18 4 1",
" 	c None",
".	c #333366",
"+	c #6666CC",
"@	c #FFFFFF",
"                  ",
"                  ",
"                  ",
"                  ",
"                  ",
"                  ",
"                  ",
"                  ",
".................+",
"++++++++++++++++++",
"@@@@@@@@@@@@@@@@@+",
"                  ",
"                  ",
"                  ",
"                  ",
"                  ",
"                  ",
"                  "};
