/* XPM */
static char * C:\Users\Heptite\Downloads\HTMLHelp_xpm[] = {
"18 18 9 1",
" 	c None",
".	c #CF0000",
"+	c #CE0000",
"$	c #000000",
"%	c #CC0000",
"&	c #1D0000",
"*	c #510000",
"=	c #AE0000",
";	c #8F0000",
"                  ",
"        +++       ",
"      ++++++      ",
"     ++++++++     ",
"    ++++  ++++    ",
"    +++    %++    ",
"   $;+     +++$   ",
"  $$$     ++++$$  ",
" $$$     ++++ $$$ ",
"$$$     ++++   $$$",
" $$$    +++   $$$ ",
"  $$$   +++  $$$  ",
"   $$$  +++ $$$   ",
"    $$$  + $$$    ",
"     $$    $$     ",
"         +        ",
"        +++       ",
"         +        "};
