/* XPM */
static char * IE_xpm[] = {
"18 18 7 1",
" 	c None",
".	c #0000FF",
"+	c #000080",
"@	c #FFFF00",
"#	c #808000",
"$	c #000000",
"%	c #808080",
"                  ",
"            ....  ",
"       ......   . ",
"     +.......+  . ",
"    +..@......+   ",
"   ++#@..++....+  ",
"   +#@...  $...+  ",
"  +#@...    $...+ ",
"  #@............+ ",
" #@#....+++++++++ ",
" # .+...          ",
" ##.+...    $...+ ",
" #..++...%%$....+ ",
" #. $++........+  ",
" #.  $$++....++   ",
"  ..  .$$$$$$     ",
"   ...            ",
"                  "};
