/* XPM */
static char * Image_xpm[] = {
"18 18 9 1",
" 	c None",
".	c #333366",
"+	c #FFFFFF",
"@	c #008000",
"#	c #00373C",
"$	c #FF66CC",
"%	c #808080",
"&	c #FF6633",
"*	c #808000",
"                  ",
"                  ",
" ................ ",
" .++++++++++++++. ",
" .++++++@@++++++. ",
" .+++++@@@#+++++. ",
" .+++++#@#@+++++. ",
" .++++++#@+++$++. ",
" .++++++++++$%++. ",
" .++&*&*+++$%$++. ",
" .++*&*&++$%$%++. ",
" .++&*&*+++$%$++. ",
" .++*&*&++++$%++. ",
" .+++++++++++$++. ",
" .++++++++++++++. ",
" ................ ",
"                  ",
"                  "};
