/* XPM */
static char * Italic_xpm[] = {
"18 18 2 1",
" 	c None",
".	c #333366",
"                  ",
"                  ",
"             .    ",
"            ..    ",
"            ..    ",
"           ...    ",
"          . ..    ",
"         .  ..    ",
"         .  ..    ",
"        .   ..    ",
"       .    ..    ",
"       .......    ",
"      .     ..    ",
"     .      ..    ",
"    .       ..    ",
"  .....   ......  ",
"                  ",
"                  "};
