/* XPM */
static char *links[] = {
/* columns rows colors chars-per-pixel */
"18 18 76 1 ",
"  c #252525",
". c gray15",
"X c #272727",
"o c #282828",
"O c gray16",
"+ c gray20",
"@ c #343434",
"# c #353535",
"$ c #3E3E3E",
"% c #3F3F3F",
"& c #414141",
"* c #434343",
"= c gray28",
"- c #4C4C4C",
"; c gray31",
": c #515151",
"> c gray35",
", c #5B5B5B",
"< c #5D5D5D",
"1 c gray37",
"2 c #606060",
"3 c gray38",
"4 c #686868",
"5 c DimGray",
"6 c #6A6A6A",
"7 c #727272",
"8 c #777777",
"9 c gray47",
"0 c #7B7B7B",
"q c #A1C057",
"w c #AFC971",
"e c #B0CA72",
"r c #B4CC78",
"t c #848484",
"y c #868686",
"u c gray54",
"i c #9A9A9A",
"p c #9B9B9B",
"a c #A4A4A4",
"s c #A5A5A5",
"d c gray65",
"f c #A7A7A7",
"g c gray67",
"h c #ACACAC",
"j c gray",
"k c #C0C0C0",
"l c gray77",
"z c #C6C6C6",
"x c #CECECE",
"c c #D3DBC1",
"v c #D4DCC2",
"b c gray83",
"n c #D5D5D5",
"m c gray84",
"M c gray85",
"N c #DDE6C6",
"B c #E1EBCA",
"V c #E5EDD2",
"C c #E7EFD4",
"Z c gray90",
"A c gray91",
"S c #EAEAEA",
"D c #EFF3E4",
"F c #F1F5E6",
"G c #F2F6E7",
"H c #F2F5EA",
"J c #F5F8ED",
"K c #F3F3F3",
"L c gray97",
"P c #F9F9F9",
"I c gray98",
"U c #FBFBFB",
"Y c None",
"T c #FDFDFD",
"R c #FEFEFE",
"E c white",
/* pixels */
"YYYYYYYYYYYYYYYYYY",
"YYYYYYYYYYYYYYYYYY",
"YYYYYl6#O#6lYYYYYY",
"YYYI9.6..ld*9YYYYY",
"YYY9.OmykY*=O9YYYY",
"YYz..<IYS=6+..lYYY",
"YY6.pYYYM:<i-.6YYY",
"YY#3YYYY3..  &#YYY",
"YYO<dYYY<....dOYYY",
"YY#0.6LYMu+..k#YYY",
"YY6yO.:YYI8.>h6YYY",
"YYz&7.dYYYbgZmSYYY",
"YYY9$jNqqqvcqqqBYY",
"YYYY9mqFHrqqrJFqYY",
"YYYYYLqFJeqqeJFqYY",
"YYYYYYBqqqCCqqqBYY",
"YYYYYYYYYYYYYYYYYY",
"YYYYYYYYYYYYYYYYYY"
};
