/* XPM */
static char * Link_xpm[] = {
"18 18 4 1",
" 	c None",
".	c #333366",
"+	c #FFFFFF",
"@	c #6666CC",
"                  ",
"                  ",
"             ..   ",
"            . +.  ",
"        .... +@.  ",
"       . +. +@.   ",
"      . +. +@.    ",
"     . +..@@..    ",
"    . +.  .. .    ",
"   . +.  +. +.    ",
"   .+.. +. +.     ",
"   ..  .. +.      ",
"   . +@. +.       ",
"  . +@. +.        ",
"  .+@....         ",
"  ...             ",
"                  ",
"                  "};
