/* XPM */
static char * Netscape_xpm[] = {
"18 18 9 1",
" 	c None",
".	c #0000C0",
"+	c #000000",
"@	c #C0C0C0",
"#	c #800000",
"$	c #A0A0A4",
"%	c #FFFF00",
"&	c #C00000",
"*	c #808080",
"                  ",
" .......+.......+ ",
" ..++...@...++.+  ",
" ..@#+++@+++#@+   ",
" ...@$%%@%%$@+    ",
" ...@%&+@+&@+     ",
" ..$@&@+@+@&@*    ",
" ..@#+.@@@+ #*    ",
" @@%%%@@%@@@@@**+ ",
" ++@+#&@@@&#+@+++ ",
" ..%+.@+@+* +%    ",
" ..#@@++@+ *@#    ",
" ...%$+#@#+$*     ",
" ..@$&%@@@%&$*    ",
" .@$+ +*@*+ +$*   ",
" .+*   #@#   ++   ",
" +      +         ",
"                  "};
