/* XPM */
static char * Opera_xpm[] = {
"18 18 5 1",
" 	c None",
".	c #000000",
"+	c #FF0000",
"@	c #7F7F7F",
"#	c #999999",
"                  ",
"          ....    ",
"         .++++.   ",
"        .+.  .+.  ",
"       .++.  .++. ",
"       .+.    .+. ",
"@#@@@@.++.    .++.",
"@@   @.++.#   .++.",
"@@    .++.#@  .++.",
"@@@   .++.@@@#.++.",
"@@@@  .++.#@@#.++.",
"#@@@@ .++.@@@@.++.",
"@@@@@@ .+.  #@.+. ",
" #@#@@@.++. #.++. ",
"   @@@@@.+.  .+.  ",
"     @@#@.++++.   ",
"        @@....    ",
"                  "};
