/* XPM */
static char * Preview_xpm[] = {
"18 18 5 1",
" 	c None",
".	c #000000",
"+	c #FFFFFF",
"@	c #BDBDBD",
"#	c #7B7B7B",
"                  ",
"                  ",
"      .....       ",
"    .........     ",
"    .........     ",
"  .....++.+@#..   ",
" .......+..+@#..  ",
" ........+..+@#.  ",
".........+..++@#..",
"...+.....+..+@@#. ",
" ..+....+...+@#.  ",
"  ..++++..+@@..   ",
"   .......@##.    ",
"    .....##..     ",
"                  ",
"                  ",
"                  ",
"                  "};
