/* XPM */
static char * C:\Users\Heptite\Downloads\Safaria_xpm[] = {
"18 18 189 2",
"  	c None",
". 	c #FDFDFD",
"+ 	c #E0ECFA",
"@ 	c #C6E0FB",
"# 	c #E1EDFB",
"$ 	c #F1F5F9",
"% 	c #9CC8F6",
"& 	c #5CA5F7",
"* 	c #3D9AF7",
"= 	c #50A6F6",
"- 	c #9FC9F6",
"; 	c #DAE7F6",
"> 	c #5AA5F5",
", 	c #409DF7",
"' 	c #5BB1F5",
") 	c #3FACF4",
"! 	c #25A7F4",
"~ 	c #3FADF4",
"{ 	c #5AB1F5",
"] 	c #409EF7",
"^ 	c #5CA6F5",
"/ 	c #DEE8F1",
"( 	c #519EF4",
"_ 	c #46A0F7",
": 	c #41ACF5",
"< 	c #1DA9F3",
"[ 	c #12AEF1",
"} 	c #11AFF0",
"| 	c #5499E9",
"1 	c #5A95E4",
"2 	c #DCE7F1",
"3 	c #65A9EF",
"4 	c #459CF8",
"5 	c #40A9F5",
"6 	c #14A8F2",
"7 	c #11B0F0",
"8 	c #10B2EF",
"9 	c #0FB4EE",
"0 	c #10B3EF",
"a 	c #588EC0",
"b 	c #936884",
"c 	c #449AF2",
"d 	c #67AAEF",
"e 	c #BAD2E9",
"f 	c #4A9BF3",
"g 	c #4DA6F6",
"h 	c #16A1F4",
"i 	c #0FB3EE",
"j 	c #0EB6ED",
"k 	c #0DB9EC",
"l 	c #1DB1E3",
"m 	c #9D6F83",
"n 	c #BC4A4F",
"o 	c #208FD4",
"p 	c #4CA7F6",
"q 	c #4B9BF3",
"r 	c #BBD2E7",
"s 	c #77B0E8",
"t 	c #519FF5",
"u 	c #2B9CF6",
"v 	c #14A7F2",
"w 	c #11B1F0",
"x 	c #0EB5ED",
"y 	c #0CBAEB",
"z 	c #0ABDEA",
"A 	c #4E96B3",
"B 	c #E15558",
"C 	c #CC4343",
"D 	c #3882AA",
"E 	c #2C9EF6",
"F 	c #52A0F6",
"G 	c #78B0E8",
"H 	c #5DA3EA",
"I 	c #62A8F6",
"J 	c #1E98F6",
"K 	c #14A9F2",
"L 	c #10B1EF",
"M 	c #10BBEA",
"N 	c #947C88",
"O 	c #FB504F",
"P 	c #CF4241",
"Q 	c #63687D",
"R 	c #13AAF2",
"S 	c #1D99F6",
"T 	c #61A7F6",
"U 	c #60A4EB",
"V 	c #D0D0D0",
"W 	c #4698E8",
"X 	c #2F8EF6",
"Y 	c #1B94F6",
"Z 	c #86C8DB",
"` 	c #CFD9DC",
" .	c #BB4E50",
"..	c #915159",
"+.	c #0EB3EA",
"@.	c #1B96F6",
"#.	c #308FF7",
"$.	c #4899E9",
"%.	c #549EE5",
"&.	c #55A1F3",
"*.	c #2091F7",
"=.	c #16A0F4",
"-.	c #12AFF1",
";.	c #4FBEE7",
">.	c #E8E9E9",
",.	c #BFBFBF",
"'.	c #879AA3",
").	c #1AA6D8",
"!.	c #16A2F3",
"~.	c #2092F7",
"{.	c #56A2F4",
"].	c #559EE5",
"^.	c #6BA7DF",
"/.	c #5BA4EF",
"(.	c #3190F9",
"_.	c #1997F6",
":.	c #29ADF3",
"<.	c #D4DFE3",
"[.	c #BCBDBE",
"}.	c #6FA3B6",
"|.	c #12AEE6",
"1.	c #1998F5",
"2.	c #3091F9",
"3.	c #5CA4F0",
"4.	c #6CA7DF",
"5.	c #99B8D2",
"6.	c #3992EA",
"7.	c #479AF3",
"8.	c #1F8DF8",
"9.	c #B2CDE1",
"0.	c #A5B3BA",
"a.	c #3698C4",
"b.	c #12ADF1",
"c.	c #15A5F3",
"d.	c #199AF5",
"e.	c #1D8DF8",
"f.	c #479AF4",
"g.	c #3993EB",
"h.	c #9BB8D2",
"i.	c #AAAAAA",
"j.	c #519BDF",
"k.	c #4197EC",
"l.	c #8DB8E7",
"m.	c #7C9CBB",
"n.	c #1E8BE4",
"o.	c #189BF5",
"p.	c #179EF4",
"q.	c #179FF4",
"r.	c #1A94F6",
"s.	c #1D8BF8",
"t.	c #3B94F4",
"u.	c #4198ED",
"v.	c #4F9ADF",
"w.	c #A7A7A8",
"x.	c #A3B5C4",
"y.	c #4A9AE2",
"z.	c #5394D4",
"A.	c #3E94ED",
"B.	c #1F85F7",
"C.	c #1E89F8",
"D.	c #1D8CF8",
"E.	c #1E85F7",
"F.	c #3F97F1",
"G.	c #3B94EB",
"H.	c #4096E4",
"I.	c #A1B2C1",
"J.	c #98B0C5",
"K.	c #4497E0",
"L.	c #3D95E8",
"M.	c #4E9EEC",
"N.	c #3792EE",
"O.	c #2588F0",
"P.	c #4F9EED",
"Q.	c #3F96E9",
"R.	c #4496DF",
"S.	c #98B0C6",
"T.	c #9EA9B2",
"U.	c #5E9DD3",
"V.	c #4697E2",
"W.	c #3E94E5",
"X.	c #4F9EE7",
"Y.	c #4898E1",
"Z.	c #5F9DD3",
"`.	c #9EA8B1",
" +	c #9B9FA4",
".+	c #8BA9C4",
"++	c #7BA6CB",
"@+	c #8CA9C4",
"#+	c #9A9EA3",
"            . + @ @ # .             ",
"        $ % & * = = * & - $         ",
"      ; > , ' ) ! ! ~ { ] ^ ;       ",
"    / ( _ : < [ } } [ < : | 1 2     ",
"    3 4 5 6 7 8 9 9 0 7 a b c d     ",
"  e f g h } i j k k l m n o p q r   ",
"  s t u v w x y z A B C D 6 E F G   ",
"  H I J K L j M N O P Q 8 R S T U   ",
"V W X Y v w x Z `  ...+.w 6 @.#.$.V ",
"  %.&.*.=.-.;.>.,.'.).0 } !.~.{.].  ",
"  ^./.(._.:.<.[.}.|.8 7 v 1.2.3.4.  ",
"  5.6.7.8.9.0.a.-.-.b.c.d.e.f.g.h.  ",
"  i.j.k.l.m.n.o.p.q.o.r.s.t.u.v.w.  ",
"    x.y.z.A.B.C.D.D.C.E.F.G.H.I.    ",
"      J.K.L.M.N.O.O.N.P.Q.R.S.      ",
"        T.U.V.W.X.X.W.Y.Z.`.        ",
"             +.+++++@+#+            ",
"                                    "};
