/* XPM */
static char * Table_xpm[] = {
"18 18 5 1",
" 	c None",
".	c #FFFFFF",
"+	c #333366",
"@	c #C0C0C0",
"#	c #9999FF",
"                  ",
" ...............+ ",
" .@@@@@@@@@@@@@@+ ",
" .@+++@+++@+++@@+ ",
" .@+#.@+#.@+#.@@+ ",
" .@+#.@+#.@+#.@@+ ",
" .@+#.@+#.@+#.@@+ ",
" .@...@...@...@@+ ",
" .@@@@@@@@@@@@@@+ ",
" .@+++@+++@+++@@+ ",
" .@+#.@+#.@+#.@@+ ",
" .@+#.@+#.@+#.@@+ ",
" .@+#.@+#.@+#.@@+ ",
" .@...@...@...@@+ ",
" .@@@@@@@@@@@@@@+ ",
" ++++++++++++++++ ",
"                  ",
"                  "};
