/* XPM */
static char * Target_xpm[] = {
"18 18 3 1",
" 	c None",
".	c #FF0000",
"+	c #000080",
"                  ",
"                  ",
"                  ",
"    .    +++      ",
"   ... . ++++     ",
"    ....   +++    ",
"     ... +  +++   ",
"    ....  +  ++   ",
"        ++ + ++   ",
"   ++ + ++ + ++   ",
"   ++  +  +  ++   ",
"   +++  ++  +++   ",
"    +++    +++    ",
"     ++++++++     ",
"      ++++++      ",
"                  ",
"                  ",
"                  "};
