/* XPM */
static char * Underline_xpm[] = {
"18 18 3 1",
" 	c None",
".	c #333366",
"+	c #222222",
"                  ",
"        .         ",
"       ...        ",
"       ...        ",
"      .....       ",
"      . ...       ",
"     ..  ...      ",
"     .   ...      ",
"    ..    ...     ",
"    .     ...     ",
"   ...........    ",
"   .       ...    ",
"  ..        ...   ",
" ...        ....  ",
".....     ....... ",
"                  ",
"+++++++++++++++++ ",
"                  "};
