/* XPM */
static char * w3m_xpm[] = {
"18 18 10 1",
" 	c None",
".	c #FF0000",
"+	c #00FF00",
"@	c #679900",
"#	c #FB0400",
"$	c #0300FC",
"%	c #0600F9",
"&	c #0000FF",
"*	c #009F60",
"=	c #0005FA",
"        ..        ",
"       ... ..     ",
"       .. ....    ",
"       .......    ",
"++++   ....... .. ",
"++++++@#.. ...... ",
"   ++++ .  .....  ",
" ++++++    ....   ",
"++++        ..    ",
"+++++       $%    ",
" ++++++    &&&&   ",
"   ++++ &  &&&&&  ",
"++++++*=&& &&&&&& ",
"++++   &&&&&& &&& ",
"       &&&&&&&    ",
"       && &&&&    ",
"       &&  &&     ",
"        &&        "};
