/* XPM */
static char * Template_xpm[] = {
"18 18 8 1",
" 	c None",
".	c #FFFF00",
"+	c #FFFFFF",
"@	c #FF6633",
"#	c #6666CC",
"$	c #FF0000",
"%	c #9999FF",
"&	c #808080",
"                  ",
" .  + +  .        ",
"  . . . .         ",
"   ..@..+######   ",
".+...$....+%+#+#  ",
" .@@$.$@& %+%#++# ",
".++..$....+%+#### ",
"   ..@.. +%+%+%+# ",
"  . .#.%.%+%+%+%# ",
" +  +#%+%+%+%+%+# ",
"    .#.%+%+%+%+%# ",
"     #%+%+%+%+%+# ",
"     #+%+%+%+%+%# ",
"     #%+%+%+%+%+# ",
"     #+%+%+%+%+%# ",
"     #%+%+%+%+%+# ",
"     ############ ",
"                  "};
